<svg xmlns="http://www.w3.org/2000/svg" width="960" height="480"><rect x="0" y="0" width="960" height="480" fill="white"/><text font-family="Sans,Arial" font-size="30" font-stretch="ultra-condensed" font-weight="bold" fill="black" x="5" y="45">test | testest</text><line stroke="grey" stroke-width="5" x1="50" y1="200" x2="601.1" y2="200"/><line stroke="grey" stroke-width="5" x1="50" y1="360" x2="601.1" y2="360"/><text stroke-width="1" font-family="monospace" font-size="20" fill="black" x="5" y="205">0|1</text><text stroke-width="1" font-family="monospace" font-size="20" fill="black" x="5" y="365">1|0</text><text stroke-width="1" font-family="monospace" font-size="20" fill="black" x="611.1" y="205">500 AA</text><text stroke-width="1" font-family="monospace" font-size="20" fill="black" x="611.1" y="365">500 AA</text><rect x="50.0" y="185" width="220.0" height="30" fill="#668380"/><text font-family="monospace" font-size="20" fill="black" x="124.0" y="205">struc1</text><rect x="325.0" y="185" width="121.0" height="30" fill="#c919cb"/><text font-family="monospace" font-size="20" fill="black" x="349.5" y="205">struc2</text><rect x="490.0" y="185" width="55.0" height="30" fill="#600547"/><text font-family="monospace" font-size="13.75" fill="black" x="492.75" y="205">struc3</text><rect x="50.0" y="345" width="220.0" height="30" fill="#668380"/><text font-family="monospace" font-size="20" fill="black" x="124.0" y="365">struc1</text><rect x="325.0" y="345" width="121.0" height="30" fill="#c919cb"/><text font-family="monospace" font-size="20" fill="black" x="349.5" y="365">struc2</text><rect x="490.0" y="345" width="55.0" height="30" fill="#600547"/><text font-family="monospace" font-size="13.75" fill="black" x="492.75" y="365">struc3</text><line stroke="red" stroke-width="3" x1="380.0" y1="185" x2="380.0" y2="155"/><text font-family="monospace" font-size="20" x="386.0" y="170">feat</text></svg>